<mxfile host="app.diagrams.net" modified="2023-10-18T09:35:39.030Z" agent="Mozilla/5.0 (Windows NT 10.0; Win64; x64; rv:109.0) Gecko/20100101 Firefox/118.0" version="22.0.4" etag="s0QX-vtqePxjiQAktqxo" type="github">
  <diagram name="Page-1" id="2pbZQFgePlFk6Rrbn53_">
    <mxGraphModel>
      <root>
        <mxCell id="0" />
        <mxCell id="1" parent="0" />
      </root>
    </mxGraphModel>
  </diagram>
</mxfile>
